<?xml version="1.0" encoding="UTF-8" standalone="no"?>
<!DOCTYPE svg PUBLIC "-//W3C//DTD SVG 1.1//EN" "http://www.w3.org/Graphics/SVG/1.1/DTD/svg11.dtd">
<svg width="100%" height="100%" viewBox="0 0 512 512" version="1.1" xmlns="http://www.w3.org/2000/svg" xmlns:xlink="http://www.w3.org/1999/xlink" xml:space="preserve" xmlns:serif="http://www.serif.com/" style="fill-rule:evenodd;clip-rule:evenodd;stroke-linejoin:round;stroke-miterlimit:2;">
    <path d="M268.801,473.225L367.85,467.377L373.518,465.96L373.518,282.974L373.492,282.974C373.492,282.752 373.494,282.532 373.498,282.312C373.222,277.693 370.041,273.663 365.594,270.16C355.603,262.292 339.357,257.556 321.162,257.556C302.964,257.556 286.716,262.292 276.725,270.16C272.068,273.827 268.801,278.074 268.801,282.969L268.801,473.225ZM138.474,465.951L144.184,467.377L243.192,473.224L243.192,282.969C243.192,278.073 239.924,273.827 235.267,270.16C225.277,262.292 209.031,257.556 190.836,257.556C172.64,257.556 156.395,262.292 146.404,270.16C141.747,273.827 138.479,278.073 138.479,282.969L138.474,282.969L138.474,465.951ZM86.71,260.162C92.863,261.877 98.34,264.376 102.798,267.516C108.716,271.684 112.864,276.903 112.864,282.975L112.866,282.975L112.866,459.556L106.417,457.946C106.417,457.946 91.328,296.566 87.562,266.358C87.287,264.174 87.003,262.114 86.71,260.162ZM80.952,234.085C78.588,226.048 76.227,219.2 74.34,208.808C70.574,188.047 58.289,38 58.289,38L453.711,38C453.711,38 446.831,122.199 441.786,173.187L441.791,173.187C440.231,188.967 437.736,208.416 437.664,208.808C437.106,211.883 436.505,214.648 435.875,217.224C434.382,223.346 432.723,228.41 431.066,234.057C431.066,234.057 398.737,242.418 387.344,253.202C386.82,253.698 386.309,254.202 385.811,254.712C384.588,253.557 383.287,252.436 381.908,251.35C368.185,240.543 346.154,233.154 321.162,233.154C296.166,233.154 274.135,240.543 260.411,251.35C258.837,252.59 257.364,253.876 255.996,255.202C254.628,253.876 253.156,252.59 251.581,251.35C237.859,240.543 215.828,233.154 190.836,233.154C165.843,233.154 143.813,240.543 130.09,251.35C128.692,252.451 127.374,253.588 126.138,254.759C125.66,254.27 125.169,253.787 124.665,253.309C114.617,243.793 99.124,236.601 80.952,234.085ZM418.082,173.187L369.554,173.187C369.223,173.013 368.882,172.854 368.53,172.711L290.149,140.738C284.153,138.292 277.307,141.173 274.851,147.173L264.24,173.187L93.928,173.187C90.992,143.698 87.113,99.566 83.923,61.594L428.082,61.594C424.894,99.571 421.02,143.707 418.082,173.187Z"/>
    <path d="M268.801,473.225L367.85,467.377L373.518,465.96L373.518,282.974L373.492,282.974C373.492,282.752 373.494,282.532 373.498,282.312C373.222,277.693 370.041,273.663 365.594,270.16C355.603,262.292 339.357,257.556 321.162,257.556C302.964,257.556 286.716,262.292 276.725,270.16C272.068,273.827 268.801,278.074 268.801,282.969L268.801,473.225ZM138.474,465.951L144.184,467.377L243.192,473.224L243.192,282.969C243.192,278.073 239.924,273.827 235.267,270.16C225.277,262.292 209.031,257.556 190.836,257.556C172.64,257.556 156.395,262.292 146.404,270.16C141.747,273.827 138.479,278.073 138.479,282.969L138.474,282.969L138.474,465.951ZM422.866,260.162C416.713,261.877 411.236,264.376 406.778,267.516C400.86,271.684 396.712,276.903 396.712,282.975L396.71,282.975L396.71,459.556L403.159,457.946C403.159,457.946 418.248,296.566 422.014,266.358C422.289,264.174 422.573,262.114 422.866,260.162ZM80.952,234.085C78.588,226.048 76.227,219.2 74.34,208.808C70.574,188.047 58.289,38 58.289,38L453.711,38C453.711,38 446.831,122.199 441.786,173.187L441.791,173.187C440.231,188.967 437.736,208.416 437.664,208.808C437.106,211.883 436.505,214.648 435.875,217.224C434.382,223.346 432.723,228.41 431.066,234.057C431.066,234.057 398.737,242.418 387.344,253.202C386.82,253.698 386.309,254.202 385.811,254.712C384.588,253.557 383.287,252.436 381.908,251.35C368.185,240.543 346.154,233.154 321.162,233.154C296.166,233.154 274.135,240.543 260.411,251.35C258.837,252.59 257.364,253.876 255.996,255.202C254.628,253.876 253.156,252.59 251.581,251.35C237.859,240.543 215.828,233.154 190.836,233.154C165.843,233.154 143.813,240.543 130.09,251.35C128.692,252.451 127.374,253.588 126.138,254.759C125.66,254.27 125.169,253.787 124.665,253.309C114.617,243.793 99.124,236.601 80.952,234.085ZM418.082,173.187L369.554,173.187C369.223,173.013 368.882,172.854 368.53,172.711L290.149,140.738C284.153,138.292 277.307,141.173 274.851,147.173L264.24,173.187L93.928,173.187C90.992,143.698 87.113,99.566 83.923,61.594L428.082,61.594C424.894,99.571 421.02,143.707 418.082,173.187Z"/>
</svg>
