<?xml version="1.0" standalone="no"?>
<!DOCTYPE svg PUBLIC "-//W3C//DTD SVG 20010904//EN"
 "http://www.w3.org/TR/2001/REC-SVG-20010904/DTD/svg10.dtd">
<svg version="1.0" xmlns="http://www.w3.org/2000/svg"
 width="512.000000pt" height="512.000000pt" viewBox="0 0 512.000000 512.000000"
 preserveAspectRatio="xMidYMid meet">
<metadata>
Created by potrace 1.14, written by Peter Selinger 2001-2017
</metadata>
<g transform="translate(0.000000,512.000000) scale(0.100000,-0.100000)"
fill="#000000" stroke="none">
<path d="M585 4718 c2 -13 6 -63 10 -113 3 -49 8 -106 10 -125 2 -19 6 -71 9
-115 4 -44 9 -102 11 -130 4 -47 9 -95 20 -225 5 -54 12 -129 20 -220 3 -25 7
-74 10 -110 3 -36 7 -81 10 -100 2 -19 7 -73 10 -120 4 -47 8 -96 10 -110 2
-14 6 -59 10 -100 3 -41 8 -86 10 -100 3 -14 7 -41 9 -60 10 -76 18 -113 62
-271 46 -170 78 -340 89 -469 3 -41 8 -82 10 -90 2 -8 6 -51 10 -95 3 -44 8
-91 10 -105 2 -14 7 -54 10 -90 3 -36 8 -81 10 -100 2 -19 7 -64 10 -100 8
-90 19 -205 29 -305 3 -27 15 -149 26 -270 11 -121 22 -236 25 -255 3 -19 7
-69 11 -110 3 -41 7 -91 9 -110 2 -19 7 -68 10 -107 l7 -73 37 -10 c56 -16
313 -78 342 -83 14 -3 88 -8 165 -11 76 -4 155 -9 174 -11 19 -3 89 -7 155
-10 66 -3 143 -8 170 -10 304 -25 594 -25 905 0 25 2 101 7 170 10 69 4 145 8
170 10 25 2 101 6 170 10 69 3 139 9 155 11 28 5 254 60 343 84 l40 10 6 68
c4 37 9 92 12 122 2 30 7 75 9 100 3 25 19 189 35 365 17 176 32 338 35 360 2
22 7 72 10 110 3 39 8 86 10 105 4 32 8 74 21 205 5 56 13 133 19 185 3 19 12
103 20 185 20 180 44 314 86 461 56 198 77 332 104 654 4 41 8 91 10 110 2 19
7 71 10 115 4 44 9 98 11 120 5 43 10 92 18 200 3 39 9 99 12 135 10 98 12
126 19 235 4 55 9 108 11 118 2 15 9 99 18 226 1 14 -196 16 -1976 19 l-1977
2 4 -22z m3683 -217 c10 -1 12 -13 8 -48 -3 -27 -8 -84 -11 -128 -3 -44 -8
-93 -10 -110 -2 -16 -7 -66 -10 -110 -3 -44 -8 -105 -11 -135 -11 -120 -13
-138 -19 -215 -4 -44 -8 -96 -10 -115 -2 -19 -7 -69 -11 -110 -3 -41 -8 -82
-10 -90 -1 -8 -3 -23 -3 -32 -1 -17 -20 -18 -246 -18 -160 0 -254 4 -272 11
-15 7 -41 18 -58 25 -43 18 -350 143 -553 225 -261 106 -266 103 -373 -173
l-34 -88 -852 0 c-675 0 -853 3 -854 13 0 6 -2 21 -3 32 -5 33 -19 190 -31
325 -3 41 -8 95 -10 120 -11 115 -15 151 -20 230 -4 47 -8 96 -10 110 -2 14
-6 59 -10 100 -3 41 -8 97 -11 123 -2 27 -2 52 0 55 3 5 3363 8 3424 3z"/>
</g>
</svg>
